<svg width="32" height="32" viewBox="0 0 32 32" xmlns="http://www.w3.org/2000/svg">
  <!-- Background circle with gradient -->
  <defs>
    <linearGradient id="bg-gradient" x1="0%" y1="0%" x2="100%" y2="100%">
      <stop offset="0%" style="stop-color:#2563eb;stop-opacity:1" />
      <stop offset="100%" style="stop-color:#1d4ed8;stop-opacity:1" />
    </linearGradient>
  </defs>
  
  <!-- Background -->
  <circle cx="16" cy="16" r="15" fill="url(#bg-gradient)" stroke="#1e40af" stroke-width="2"/>
  
  <!-- Letter D -->
  <path d="M8 10 L8 22 L13.5 22 C17 22 19 19.5 19 16 C19 12.5 17 10 13.5 10 Z M10.5 12.5 L13 12.5 C15 12.5 16.5 13.8 16.5 16 C16.5 18.2 15 19.5 13 19.5 L10.5 19.5 Z" fill="white"/>
  
  <!-- Letter V -->
  <path d="M20.5 10 L18.5 10 L21 18 L23.5 10 L21.5 10 Z" fill="white"/>
  <path d="M21.5 14 L23 18.8 L24.5 14" stroke="white" stroke-width="1.5" fill="none"/>
</svg>
